# xmcd
# 
# Track frame offsets:
#     150
#     14963
#     27284
#     44827
#     57341
#     72893
#     83106
#     98512
# 
# Disc length: 2686
# 
# Revision: 1
# Processed by: cddbd v1.5.2PL0 Copyright (c) Steve Scherf et al.
# Submitted via: BonkEnc v1.0.6
# 
DISCID=6a0a7c08
DTITLE=KING BROTHERS - ★★★★★★★
DYEAR=1999
DGENRE=Rock and Roll
TTITLE0=★★★
TTITLE1=ビッグボス
TTITLE2=みな殺しのブルース
TTITLE3=タイクツ地獄
TTITLE4=デッドソウル
TTITLE5=もえつきやすい
TTITLE6=キングビート
TTITLE7=99クレジット
EXTD=YEAR: 1999
EXTT0=
EXTT1=
EXTT2=
EXTT3=
EXTT4=
EXTT5=
EXTT6=
EXTT7=
PLAYORDER=
